<?xml version="1.0" encoding="utf-8"?><svg xmlns="http://www.w3.org/2000/svg" xmlns:xlink="http://www.w3.org/1999/xlink" width="1920" height="650" preserveAspectRatio="xMidYMid" viewBox="0 0 1920 650" style="z-index:1;margin-right:-2px;display:block;background-repeat-y:initial;background-repeat-x:initial;animation-play-state:paused" ><g transform="" style="animation-play-state:paused" ><linearGradient id="lg-0.4397969062542679" x1="0" x2="1" y1="0" y2="0" style="animation-play-state:paused" ><stop stop-color="#536dfe" offset="0" style="animation-play-state:paused" ></stop>

  
<stop stop-color="#0f1979" offset="1" style="animation-play-state:paused" ></stop></linearGradient>
<path fill="url(#lg-0.4397969062542679)" opacity="0.4" d="M 0 0 L 0 382.737 Q 320 366.633 640 349.907 T 1280 410.84 T 1920 377.566 L 1920 0 Z" style="opacity:0.4;animation-play-state:paused" ></path>
<path fill="url(#lg-0.4397969062542679)" opacity="0.4" d="M 0 0 L 0 408.371 Q 320 384.696 640 366.061 T 1280 417.093 T 1920 414.948 L 1920 0 Z" style="opacity:0.4;animation-play-state:paused" ></path>
<path fill="url(#lg-0.4397969062542679)" opacity="0.4" d="M 0 0 L 0 413.619 Q 320 419.321 640 400.694 T 1280 413.705 T 1920 371.716 L 1920 0 Z" style="opacity:0.4;animation-play-state:paused" ></path>
<path fill="url(#lg-0.4397969062542679)" opacity="0.4" d="M 0 0 L 0 419.572 Q 320 435.987 640 405.919 T 1280 363.612 T 1920 342.235 L 1920 0 Z" style="opacity:0.4;animation-play-state:paused" ></path>
<path fill="url(#lg-0.4397969062542679)" opacity="0.4" d="M 0 0 L 0 400.612 Q 320 371.972 640 348.006 T 1280 344.889 T 1920 382.106 L 1920 0 Z" style="opacity:0.4;animation-play-state:paused" ></path>
<path fill="url(#lg-0.4397969062542679)" opacity="0.4" d="M 0 0 L 0 437.022 Q 320 439.265 640 400.944 T 1280 388.167 T 1920 415.941 L 1920 0 Z" style="opacity:0.4;animation-play-state:paused" ></path></g></svg>